<svg id="Layer_1" data-name="Layer 1" xmlns="http://www.w3.org/2000/svg" viewBox="0 0 500 500"><defs><style>.cls-1{fill:none;stroke:#165593;stroke-linecap:round;stroke-linejoin:round;stroke-width:10px;}.cls-2{fill:#165593;}</style></defs><path class="cls-1" d="M118.27,450.5s32-115,11-333c-3.39-35.18,25.66-64,61-64,28,0,36,25,38,67"/><path class="cls-1" d="M118.77,51c4.7,0,6.51,36,10.5,65.5"/><path class="cls-1" d="M366.16,337.41c-4,41.3-26.34,112.09-37.89,112.09-8.36,0-18-60-19-114-2-107,10-153,11-219,.54-35.34-13.5-63-50-63-39,0-46.37,38.5-41,74,7,46.12,0,101.28-3,141-5.5,71.78-3,141-11,182"/><polygon class="cls-2" points="347.96 356.27 365.91 340.36 381.81 358.31 382.67 343.94 366.77 326 348.83 341.9 347.96 356.27"/></svg>