<svg id="Layer_1" data-name="Layer 1" xmlns="http://www.w3.org/2000/svg" viewBox="0 0 500 500"><defs><style>.cls-1{fill:none;stroke:#037f0b;stroke-linecap:round;stroke-linejoin:round;stroke-width:10px;}</style></defs><path class="cls-1" d="M253.27,116.5a64,64,0,0,0-64-64c-35.34,0-64.39,28.82-61,64,21,218-11,333-11,333"/><path class="cls-1" d="M245.27,449.5c-24-77,8-333,8-333a64,64,0,0,1,64-64c35.35,0,70.5,29.26,64,64-43,230-49,239.2-46,269.1"/><path class="cls-1" d="M117.77,50c4.7,0,5.51,25,9.5,54.5"/><ellipse class="cls-1" cx="358.27" cy="381" rx="23" ry="68.5"/></svg>